<svg id="Layer_1" data-name="Layer 1" xmlns="http://www.w3.org/2000/svg" viewBox="0 0 1000 501.06"><defs><style>.cls-1{fill:#877e6e;}.cls-2{fill:#231f20;}.cls-3,.cls-5{fill:#fff;}.cls-11,.cls-3,.cls-8{fill-rule:evenodd;}.cls-4{fill:#ec1c24;}.cls-11,.cls-6{fill:#00a84f;}.cls-7{fill:none;}.cls-8,.cls-9{fill:#f0e5c7;}.cls-10{fill:#d9c792;}</style></defs><title>uaeu-logo</title><path class="cls-1" d="M177.39,644.6a18.3,18.3,0,0,1,1-6.12,12.53,12.53,0,0,1,2.87-4.63,12.14,12.14,0,0,1,4.5-2.87,17.87,17.87,0,0,1,6-1,12.3,12.3,0,0,1,5.49,1.13,11.43,11.43,0,0,1,3.87,3.12,13.28,13.28,0,0,1,2.25,4.62,21.57,21.57,0,0,1,.75,5.87v13.87H192.38c-10,0-15-4.75-15-14m8.12-18.12a4.14,4.14,0,0,1-3-1.25,4.65,4.65,0,0,1-1.25-3.12,4.1,4.1,0,0,1,1.25-3,4.22,4.22,0,0,1,6,0,4.49,4.49,0,0,1,1.12,3,4.54,4.54,0,0,1-1.12,3.12,3.69,3.69,0,0,1-3,1.25m10.87,25.86v-8.62a9.57,9.57,0,0,0-1.38-5.49,4.54,4.54,0,0,0-4-2,4.68,4.68,0,0,0-4,2,7.86,7.86,0,0,0-1.63,5.37c0,3.12.63,5.37,1.75,6.74s3.25,2,6.12,2Zm0-25.86a4.14,4.14,0,0,1-3-1.25,4.65,4.65,0,0,1-1.25-3.12,4.06,4.06,0,0,1,1.25-3,4.22,4.22,0,0,1,6,0,4.54,4.54,0,0,1,1.12,3,4.59,4.59,0,0,1-1.12,3.12,4.06,4.06,0,0,1-3,1.25" transform="translate(0 -249.47)"/><path class="cls-1" d="M279.33,626.48a4.14,4.14,0,0,1-3-1.25,4.65,4.65,0,0,1-1.25-3.12,4.06,4.06,0,0,1,1.25-3,4.21,4.21,0,0,1,6,0,4.5,4.5,0,0,1,1.13,3,4.55,4.55,0,0,1-1.13,3.12,3.68,3.68,0,0,1-3,1.25m10.86,0a4.12,4.12,0,0,1-3-1.25,4.65,4.65,0,0,1-1.25-3.12,4.06,4.06,0,0,1,1.25-3,4.21,4.21,0,0,1,6,0,4.5,4.5,0,0,1,1.13,3,4.55,4.55,0,0,1-1.13,3.12,3.85,3.85,0,0,1-3,1.25" transform="translate(0 -249.47)"/><path class="cls-1" d="M324.3,652.34v-8.62q0-3.93-1.5-5.62a4.68,4.68,0,0,0-3.87-1.87,4.52,4.52,0,0,0-4,2.12,8,8,0,0,0-1.63,5.25c0,3.12.63,5.37,1.75,6.74s3.25,2,6.25,2h3m-9.12,5.75a20.27,20.27,0,0,1-3.62-1.25,9,9,0,0,1-2.38-1.62,6.79,6.79,0,0,1-1.25-1.75,6.58,6.58,0,0,1-2.87,3.87,10.59,10.59,0,0,1-5.75,1.37H210.12v-6.24h17.61a19.48,19.48,0,0,0-.5-4.5,13.78,13.78,0,0,0-2.12-4.87,16,16,0,0,0-4.37-4.37,23.19,23.19,0,0,0-7.5-3.25l.63-6.5A27.87,27.87,0,0,1,224,632.1a23,23,0,0,1,6.62,5.63,19.31,19.31,0,0,1,3.62,7.12,26.78,26.78,0,0,1,1.12,7.62v.12h24.49v-5.37a14.85,14.85,0,0,0-.63-4.5,6.09,6.09,0,0,0-1.87-3A8.62,8.62,0,0,0,254,638a20.14,20.14,0,0,0-5.13-.5h-3.12c-1,0-1.75.12-2.37.12l.62-6.12a14.23,14.23,0,0,1,2.38-.12h3.24a27.44,27.44,0,0,1,8.5,1.12,13.54,13.54,0,0,1,5.62,3.12,11.3,11.3,0,0,1,3.12,4.62,17.19,17.19,0,0,1,.88,5.75v6.75h14V631.36h7.62v21.36h11.37a3.75,3.75,0,0,0,2-.63,6.14,6.14,0,0,0,1.49-1.62,9.34,9.34,0,0,0,.88-2.25,8.47,8.47,0,0,0,.25-2.5,22.6,22.6,0,0,1,1-6.87,12.5,12.5,0,0,1,2.87-4.87,12,12,0,0,1,4.5-2.87,17.43,17.43,0,0,1,5.87-.88,13.65,13.65,0,0,1,5.25,1,11.07,11.07,0,0,1,3.87,3,16,16,0,0,1,2.37,4.62,21.66,21.66,0,0,1,.88,6v7.62H346v-35h7.62v41.22H320.17a48.16,48.16,0,0,1-5-.62" transform="translate(0 -249.47)"/><rect class="cls-1" x="363.52" y="367.9" width="7.75" height="41.22"/><path class="cls-1" d="M403.12,626.48a4.14,4.14,0,0,1-3-1.25,4.69,4.69,0,0,1-1.24-3.12,4.09,4.09,0,0,1,1.24-3,3.72,3.72,0,0,1,3-1.25,3.89,3.89,0,0,1,3,1.25,4.5,4.5,0,0,1,1.13,3,4.55,4.55,0,0,1-1.13,3.12,3.69,3.69,0,0,1-3,1.25M413,652.34V636.6l-1.87-.37c-.63,0-1.13-.13-1.5-.13a5.63,5.63,0,0,0-4.87,2.13C403.5,639.6,403,641.47,403,644a12.61,12.61,0,0,0,.37,3.13,6.44,6.44,0,0,0,1.25,2.62,8.32,8.32,0,0,0,2.25,1.87,7.08,7.08,0,0,0,3.37.63H413Zm1-25.86a4.14,4.14,0,0,1-3-1.25,4.65,4.65,0,0,1-1.25-3.12,4.1,4.1,0,0,1,1.25-3,4.22,4.22,0,0,1,6,0,4.49,4.49,0,0,1,1.12,3,4.54,4.54,0,0,1-1.12,3.12,4,4,0,0,1-3,1.25m30.23,45.23a3.72,3.72,0,0,1-3-1.25,4.76,4.76,0,0,1-1.24-3.25,4.06,4.06,0,0,1,1.24-3,4.22,4.22,0,0,1,6,0,4.46,4.46,0,0,1,1.12,3,4.69,4.69,0,0,1-1.12,3.25,4.59,4.59,0,0,1-3,1.25m10.75,0a3.72,3.72,0,0,1-3-1.25,4.77,4.77,0,0,1-1.25-3.25,4,4,0,0,1,1.25-3,4.21,4.21,0,0,1,6,0,4.47,4.47,0,0,1,1.13,3,4.69,4.69,0,0,1-1.13,3.25,4.13,4.13,0,0,1-3,1.25M398.5,655c-2.37-2.38-3.5-5.63-3.5-9.87a16.39,16.39,0,0,1,.88-5.62,13.71,13.71,0,0,1,7.62-8.25,16.54,16.54,0,0,1,6.87-1.25c1.75,0,3.5.13,5.25.25s3.37.38,5,.63v21.36h28.86V630.86h7.62v21.36h19.36V630.86h7.62v27.6H409.49c-5,.13-8.62-1.12-11-3.49m77.95,16.74a4.15,4.15,0,0,1-3.12-1.25,4.24,4.24,0,0,1-1.25-3.25,4,4,0,0,1,1.25-3,4.15,4.15,0,0,1,3.12-1.25,3.72,3.72,0,0,1,3,1.25,4.07,4.07,0,0,1,1.25,3,4.27,4.27,0,0,1-1.25,3.25,4.14,4.14,0,0,1-3,1.25" transform="translate(0 -249.47)"/><path class="cls-1" d="M536.54,646.35a8.43,8.43,0,0,0,2.37-2.88,6.56,6.56,0,0,0,.75-2.87,4.12,4.12,0,0,0-1.62-3.5,6.45,6.45,0,0,0-4.25-1.37,10.11,10.11,0,0,0-4.12.75,19,19,0,0,0-3.5,1.87,14.4,14.4,0,0,1,2.75,1.38,16.42,16.42,0,0,1,2.37,1.74,20.51,20.51,0,0,1,2.38,2.25c1,.88,1.87,1.75,2.87,2.63m-45.1,27.1a26.1,26.1,0,0,1-3.12-.12l.62-6.25a17.82,17.82,0,0,0,2.63.13,8.19,8.19,0,0,0,5.62-1.75c1.25-1.13,1.75-3.25,1.75-6.37V630.86h7.74v21.36h12.5A27.35,27.35,0,0,0,530.42,650c-.88-.88-1.75-1.63-2.5-2.5s-1.62-1.5-2.5-2.25a17.78,17.78,0,0,0-3-2,24.09,24.09,0,0,0-4-1.75l.87-6.49a30.86,30.86,0,0,1,7.5-4,22.07,22.07,0,0,1,8-1.5,15.81,15.81,0,0,1,5.75.88,11.07,11.07,0,0,1,4.12,2.24,9.71,9.71,0,0,1,2.5,3.38,11.7,11.7,0,0,1,.87,4.24,9.77,9.77,0,0,1-1.5,5.13,19,19,0,0,1-4.24,4.87c1.12.62,2.12,1.12,3.12,1.62a10.32,10.32,0,0,0,3.62.63H562.4v-35h7.74v41.22H548.53a21,21,0,0,1-7.24-1.12,23.72,23.72,0,0,1-5.62-2.87,40.48,40.48,0,0,1-7.62,3,30.35,30.35,0,0,1-8.12,1.13H506.68v.25a26.69,26.69,0,0,1-.62,5.49,13.1,13.1,0,0,1-2.37,4.75,12.71,12.71,0,0,1-4.63,3.25,32.77,32.77,0,0,1-7.62.87" transform="translate(0 -249.47)"/><rect class="cls-1" x="579.89" y="367.9" width="7.75" height="41.22"/><path class="cls-1" d="M620.61,657.09a18.65,18.65,0,0,1-7-3.87,12.3,12.3,0,0,1-3.63-5.75,20.54,20.54,0,0,1-1-6.75,28,28,0,0,1,.38-4.24c.25-1.5.5-3,.75-4.25l8.12-1.5A18.91,18.91,0,0,0,617,635.1a28.14,28.14,0,0,0-.38,4.75,16.62,16.62,0,0,0,.75,5.25,9.27,9.27,0,0,0,2.63,4,13.29,13.29,0,0,0,5,2.5,34.29,34.29,0,0,0,7.87.88h29.74V631.11h7.74v27.6H631.85a39.56,39.56,0,0,1-11.24-1.62m17.87-28.86a4.14,4.14,0,0,1-3-1.25,4.65,4.65,0,0,1-1.25-3.12,4.06,4.06,0,0,1,1.25-3,4.21,4.21,0,0,1,6,0,4.5,4.5,0,0,1,1.13,3,4.08,4.08,0,0,1-4.12,4.37m10.74,0a4.14,4.14,0,0,1-3-1.25,4.65,4.65,0,0,1-1.25-3.12,4.1,4.1,0,0,1,1.25-3,4.22,4.22,0,0,1,6,0,4.49,4.49,0,0,1,1.12,3,4.54,4.54,0,0,1-1.12,3.12,4.14,4.14,0,0,1-3,1.25" transform="translate(0 -249.47)"/><rect class="cls-1" x="679.95" y="367.9" width="7.62" height="41.22"/><path class="cls-1" d="M691.07,673.45a25.93,25.93,0,0,1-3.12-.12l.62-6.25a17.69,17.69,0,0,0,2.62.13,8.18,8.18,0,0,0,5.62-1.75c1.25-1.13,1.75-3.25,1.75-6.37V630.86h7.62v27.85a26.78,26.78,0,0,1-.62,5.5,13.18,13.18,0,0,1-2.37,4.75,12.81,12.81,0,0,1-4.63,3.24,17.9,17.9,0,0,1-7.49,1.25" transform="translate(0 -249.47)"/><path class="cls-1" d="M714.93,658.59V617.36h7.74v35h13.25a3.8,3.8,0,0,0,2-.62,6.22,6.22,0,0,0,1.5-1.63,9.1,9.1,0,0,0,.88-2.24,8.54,8.54,0,0,0,.25-2.5,22.51,22.51,0,0,1,1-6.87,12.61,12.61,0,0,1,2.87-4.88,12.14,12.14,0,0,1,4.5-2.87,17.65,17.65,0,0,1,5.87-.87,13.37,13.37,0,0,1,5.24,1,11.17,11.17,0,0,1,3.88,3,16,16,0,0,1,2.37,4.63,21.53,21.53,0,0,1,.88,6v13.87H755.4a19.1,19.1,0,0,1-4.87-.5,20.84,20.84,0,0,1-3.62-1.25,9,9,0,0,1-2.38-1.62,6.72,6.72,0,0,1-1.24-1.75,6.56,6.56,0,0,1-2.88,3.87,10.57,10.57,0,0,1-5.74,1.37H714.93m44.47-6.12v-8.62q0-3.93-1.5-5.62a4.68,4.68,0,0,0-3.87-1.87,4.52,4.52,0,0,0-4,2.12,8,8,0,0,0-1.62,5.25c0,3.12.62,5.37,1.75,6.74s3.24,2,6.12,2Z" transform="translate(0 -249.47)"/><path class="cls-1" d="M785.38,617.36V644.6l-3.74,1.12c-1.25.25-2.5.5-3.88.75V617.36h7.62m-10.74,53.72h.88a3.33,3.33,0,0,1,1.12.13c.37,0,.87.12,1.25.12a2.45,2.45,0,0,1,1,.25,2.08,2.08,0,0,1-.75-1.25,6.12,6.12,0,0,1-.25-1.62,4.09,4.09,0,0,1,.5-2.13,5.69,5.69,0,0,1,1.25-1.75,11.34,11.34,0,0,1,2.12-1.24,11,11,0,0,1,3-.38,13.14,13.14,0,0,1,2,.25,10.41,10.41,0,0,1,2,.62l-1.38,3.5a11.2,11.2,0,0,0-1.25-.62,6.12,6.12,0,0,0-1.62-.25,1.93,1.93,0,0,0-2.12,1.87c0,1.5,1.25,2.25,3.74,2.25h3.13v4.5H774.39v-4.25Zm10.37-12a30.8,30.8,0,0,1-4.87-.38,37.38,37.38,0,0,1-4.25-.87l.75-7.5a22.32,22.32,0,0,0,4.37,1.25,28.57,28.57,0,0,0,4.5.38c2.87,0,5-.5,6.37-1.5s2-2.62,2-4.87V617.11h7.62V645a16.43,16.43,0,0,1-.88,5.62,13,13,0,0,1-2.87,4.5,13.43,13.43,0,0,1-5.12,2.87,19.88,19.88,0,0,1-7.62,1.13" transform="translate(0 -249.47)"/><rect class="cls-1" x="810.62" y="367.9" width="7.75" height="41.22"/><path class="cls-1" d="M848.59,626.48a4.13,4.13,0,0,1-3-1.25,4.55,4.55,0,0,1-1.13-3.12,4.5,4.5,0,0,1,1.13-3,3.88,3.88,0,0,1,3-1.25,3.72,3.72,0,0,1,3,1.25,4.5,4.5,0,0,1,1.13,3,4.55,4.55,0,0,1-1.13,3.12,3.69,3.69,0,0,1-3,1.25" transform="translate(0 -249.47)"/><path class="cls-1" d="M859.46,626.48a4.37,4.37,0,0,1-3-1.25,4.69,4.69,0,0,1-1.24-3.12,4.09,4.09,0,0,1,1.24-3,4.22,4.22,0,0,1,6,0,4.5,4.5,0,0,1,1.13,3,4.55,4.55,0,0,1-1.13,3.12,4,4,0,0,1-3,1.25" transform="translate(0 -249.47)"/><path class="cls-1" d="M858.46,652.34V636.6l-1.87-.37c-.62,0-1.12-.13-1.62-.13a5.65,5.65,0,0,0-4.88,2.13c-1.25,1.37-1.75,3.24-1.75,5.74a12.6,12.6,0,0,0,.38,3.13,6.32,6.32,0,0,0,1.25,2.62,8,8,0,0,0,2.25,1.87,6.78,6.78,0,0,0,3.37.63h2.87m36.36-5.87a10.64,10.64,0,0,0,2.49-2.88,6.56,6.56,0,0,0,.75-2.87,4.37,4.37,0,0,0-1.5-3.5,6.4,6.4,0,0,0-4.24-1.37,11.19,11.19,0,0,0-4.25.75,19,19,0,0,0-3.5,1.87,14.4,14.4,0,0,1,2.75,1.38,16.42,16.42,0,0,1,2.37,1.74,20.51,20.51,0,0,1,2.38,2.25c.87.88,1.75,1.75,2.75,2.63M844,655c-2.37-2.38-3.5-5.63-3.5-9.87a16.39,16.39,0,0,1,.88-5.62,14.66,14.66,0,0,1,2.87-4.88,14.88,14.88,0,0,1,4.75-3.37,16.54,16.54,0,0,1,6.87-1.25c1.75,0,3.5.13,5.25.25s3.37.38,5.12.63v21.36h11.12A27.35,27.35,0,0,0,888.57,650c-.87-.88-1.75-1.63-2.5-2.5s-1.62-1.5-2.5-2.25a17.78,17.78,0,0,0-3-2,24.09,24.09,0,0,0-4-1.75l.87-6.49a31,31,0,0,1,7.5-4,22.07,22.07,0,0,1,8-1.5,16.24,16.24,0,0,1,5.75.88,11.07,11.07,0,0,1,4.12,2.24,9.11,9.11,0,0,1,2.5,3.38,11.66,11.66,0,0,1,.75,4.24,9.77,9.77,0,0,1-1.5,5.13,21.24,21.24,0,0,1-4.25,4.87c1.13.62,2.13,1.12,3.13,1.62a10.24,10.24,0,0,0,3.62.63h6.87a3.43,3.43,0,0,0,2-.63,4.32,4.32,0,0,0,1.37-1.62,9.34,9.34,0,0,0,.88-2.25,8.6,8.6,0,0,0,.37-2.5,22.92,22.92,0,0,1,1-6.87,12.5,12.5,0,0,1,2.87-4.87,12,12,0,0,1,4.5-2.87,17.43,17.43,0,0,1,5.87-.88,13.65,13.65,0,0,1,5.25,1,11.19,11.19,0,0,1,3.87,3,16,16,0,0,1,2.37,4.62,21.88,21.88,0,0,1,.75,6v13.86H933.29a18.61,18.61,0,0,1-4.87-.5,20,20,0,0,1-3.62-1.25,8.78,8.78,0,0,1-2.38-1.62,6.63,6.63,0,0,1-1.25-1.75,6.55,6.55,0,0,1-2.87,3.87,10.49,10.49,0,0,1-5.75,1.38h-5.87a21,21,0,0,1-7.24-1.13,27.57,27.57,0,0,1-5.75-2.87,40.25,40.25,0,0,1-7.62,3,30.28,30.28,0,0,1-8.12,1.12H854.84q-7.3-.18-10.87-3.74m93.44-2.63v-8.62q0-3.93-1.49-5.62a4.68,4.68,0,0,0-3.88-1.87,4.5,4.5,0,0,0-4,2.12,8,8,0,0,0-1.63,5.25c0,3.12.63,5.37,1.75,6.74s3.25,2,6.25,2Z" transform="translate(0 -249.47)"/><path class="cls-1" d="M954.15,658.59V617.36h7.75v35h29.23V647a11.87,11.87,0,0,0-.62-4.5,6.11,6.11,0,0,0-1.88-3,8.55,8.55,0,0,0-3.37-1.75,20,20,0,0,0-5.12-.5H977c-1,0-1.74.12-2.37.12l.63-6.12a14,14,0,0,1,2.37-.12h3.25a27.42,27.42,0,0,1,8.49,1.12,13.48,13.48,0,0,1,5.62,3.12,11.39,11.39,0,0,1,3.13,4.63,17.38,17.38,0,0,1,1,5.74v13h-45m28.36,13a4.15,4.15,0,0,1-3.12-1.25,4.24,4.24,0,0,1-1.25-3.25,4,4,0,0,1,1.25-3,4.52,4.52,0,0,1,6.24,0,4,4,0,0,1,1.25,3,4.24,4.24,0,0,1-1.25,3.25,4.9,4.9,0,0,1-3.12,1.25" transform="translate(0 -249.47)"/><path class="cls-1" d="M193.75,729c-12.36,0-15.24-6.74-15.24-14.24V689.07h7.62V714.3c0,4.88,1.63,8.5,8.12,8.5,5.87,0,8.25-2.5,8.25-9.25V689.07H210v24c.13,10.87-5.87,16-16.24,16" transform="translate(0 -249.47)"/><path class="cls-1" d="M236.73,728.42V709.93c0-2.87-.75-4.87-3.5-4.87-3.75,0-6.75,4.37-6.75,9.37v13.86h-7.37V705.06c-1.37-.25-3.37-.5-5.12-.63v-4.49a75.13,75.13,0,0,1,12-.5,36.63,36.63,0,0,1-.37,5.12h0a10.85,10.85,0,0,1,9.87-5.75c6.49,0,8.62,4.13,8.62,9.25v20.23h-7.37" transform="translate(0 -249.47)"/><path class="cls-1" d="M254.22,728.42V705.18c-1.38-.25-3.38-.5-5-.62v-4.5a80.16,80.16,0,0,1,12.49-.5v28.86h-7.49m3.62-33.23a4.5,4.5,0,1,1,0-9,4.5,4.5,0,1,1,0,9" transform="translate(0 -249.47)"/><path class="cls-1" d="M279.33,729c-6.38,0-8.37-2.37-8.37-9.11V705.31h-5v-5.62h5v-9l7.37-2v11h7v5.62h-7v12.74c0,3.75.87,4.87,3.37,4.87a13.91,13.91,0,0,0,3.37-.37l.5,5.74a33.69,33.69,0,0,1-6.24.75" transform="translate(0 -249.47)"/><path class="cls-1" d="M314.8,715.3H296.94c0,5.25,2.62,8,8,8a20.3,20.3,0,0,0,8.37-1.88l.88,5.63a29.16,29.16,0,0,1-10.49,1.87c-9.12,0-14.25-4.5-14.25-14.74,0-8.87,4.88-15.37,13.62-15.37,8.5,0,12.12,5.75,12.12,12.87-.13,1.12-.13,2.25-.38,3.62m-12.11-11c-3.13,0-5.25,2.37-5.63,5.87h10.62c.13-3.62-1.87-5.87-5-5.87" transform="translate(0 -249.47)"/><path class="cls-1" d="M338.79,728.54a31.54,31.54,0,0,1,.37-4.74H339a9.76,9.76,0,0,1-9.12,5.37c-7,0-10.49-5.25-10.49-13.49,0-9.87,5.74-16.49,15.24-16.49a33.87,33.87,0,0,1,3.62.25v-7.5a51,51,0,0,0-5.12-.62V686.7a79.57,79.57,0,0,1,12.49-.5v36.85c1.37.25,3.37.5,5,.62v4.5c-3.63.25-8,.5-11.87.37m-.5-23.23a22,22,0,0,0-3.87-.5c-4.25,0-7.25,2.75-7.25,9.87,0,5.37,1.62,8.24,5,8.24,3.87,0,6.24-4.62,6.24-9.62v-8Z" transform="translate(0 -249.47)"/><path class="cls-1" d="M392,728.42l-2.75-8H374.39l-2.75,8H364l13.74-39.23h8.5l14,39.23H392m-8.5-25.11a29.89,29.89,0,0,1-1.62-5.5h0a45.27,45.27,0,0,1-1.63,5.5l-3.87,11.24h11Z" transform="translate(0 -249.47)"/><path class="cls-1" d="M421,706.31c-5.5-1.25-8.25,2.37-8.25,10.37v11.74h-7.37V705.18a50.63,50.63,0,0,0-5.12-.62v-4.5a76.31,76.31,0,0,1,12-.5,33,33,0,0,1-.5,5.75h.13c1.37-3.62,4.24-6.87,9.37-6.37l-.25,7.37" transform="translate(0 -249.47)"/><path class="cls-1" d="M439.6,728.54a31,31,0,0,1,.25-4.87h0c-1.37,3.25-5,5.5-9.24,5.5-5.25,0-8.25-3.12-8.25-7.87,0-6.87,6.87-10.49,16.74-10.49v-1.38c0-3-1.5-4.62-5.62-4.62a20.37,20.37,0,0,0-8.5,2.12l-.87-6.12a34.66,34.66,0,0,1,10.37-1.75c9.37,0,12,3.75,12,10.12v13.87a51,51,0,0,0,5.12.62v4.5c-3.74.25-8.24.5-12,.37m-.62-13c-7.62,0-9.62,2-9.62,4.5a3.14,3.14,0,0,0,3.37,3.37c3.62,0,6.12-3.62,6.12-7v-.88Z" transform="translate(0 -249.47)"/><path class="cls-1" d="M467.08,729a39.58,39.58,0,0,1-10.74-1.37V691.82c-1.37-.25-3.37-.5-5.12-.63v-4.62a81.5,81.5,0,0,1,12.49-.5v12.49a26.48,26.48,0,0,1-.5,5.62h0a9.25,9.25,0,0,1,8.75-5.12c6.87,0,10.61,5,10.61,13.49.25,9.75-5.49,16.49-15.49,16.49m2.88-24c-3.88,0-6.12,4.5-6.12,9.37v8.12a11.25,11.25,0,0,0,3.87.5c4.25,0,7.24-2.75,7.24-10,0-5.12-1.62-8-5-8" transform="translate(0 -249.47)"/><polygon class="cls-1" points="501.56 478.95 501.56 439.73 522.92 439.73 522.92 446.1 509.18 446.1 509.18 455.71 522.17 455.71 522.17 461.84 509.18 461.84 509.18 472.58 522.92 472.58 522.92 478.95 501.56 478.95"/><path class="cls-1" d="M566.9,728.42V710.18c0-3-.75-5.12-3.38-5.12-3.25,0-6.62,3.87-6.62,9.49v13.74h-7.37V710.06c0-2.75-.62-5-3.5-5-3.37,0-6.62,4.12-6.62,9.49v13.74H532V705.06c-1.37-.25-3.37-.5-5.12-.63v-4.49a75.78,75.78,0,0,1,12-.5,38,38,0,0,1-.37,5.12h0a10.38,10.38,0,0,1,9.49-5.75c5.12,0,7.25,3,8,5.75a10.33,10.33,0,0,1,9.37-5.75c5.62,0,8.62,3.13,8.62,9.62v19.86H566.9" transform="translate(0 -249.47)"/><path class="cls-1" d="M584.38,728.42V705.18a50.63,50.63,0,0,0-5.12-.62v-4.5a80.29,80.29,0,0,1,12.5-.5v28.86h-7.38M588,695.19a4.5,4.5,0,1,1,0-9,4.5,4.5,0,0,1,4.62,4.49,4.43,4.43,0,0,1-4.62,4.5" transform="translate(0 -249.47)"/><path class="cls-1" d="M617.24,706.31c-5.5-1.25-8.25,2.37-8.25,10.37v11.74h-7.37V705.18c-1.37-.25-3.37-.5-5-.62v-4.5a76.31,76.31,0,0,1,12-.5,34,34,0,0,1-.5,5.75h.12c1.38-3.62,4.25-6.87,9.37-6.37l-.37,7.37" transform="translate(0 -249.47)"/><path class="cls-1" d="M635.85,728.54a31,31,0,0,1,.25-4.87h0c-1.37,3.25-5,5.5-9.24,5.5-5.25,0-8.25-3.12-8.25-7.87,0-6.87,6.87-10.49,16.74-10.49v-1.38c0-3-1.5-4.62-5.62-4.62a20.28,20.28,0,0,0-8.49,2.12l-.88-6.12a34,34,0,0,1,10.37-1.75c9.49,0,12,3.75,12,10.12v13.87a51.21,51.21,0,0,0,5.13.62v4.5c-3.75.25-8.25.5-12,.37m-.62-13c-7.5,0-9.62,2-9.62,4.5a3.14,3.14,0,0,0,3.37,3.37c3.62,0,6.12-3.62,6.12-7v-.88Z" transform="translate(0 -249.47)"/><path class="cls-1" d="M662.09,729c-6.37,0-8.37-2.37-8.37-9.11V705.31h-5v-5.62h5v-9l7.37-2v11h7v5.62h-7v12.74c0,3.75.87,4.87,3.37,4.87a13.91,13.91,0,0,0,3.37-.37l.5,5.74a33.69,33.69,0,0,1-6.24.75" transform="translate(0 -249.47)"/><path class="cls-1" d="M697.56,715.3H679.7c0,5.25,2.62,8,8,8a20.37,20.37,0,0,0,8.37-1.88l.87,5.63a29.67,29.67,0,0,1-10.49,1.87c-9.12,0-14.25-4.5-14.25-14.74,0-8.87,4.88-15.37,13.62-15.37,8.5,0,12.12,5.75,12.12,12.87-.13,1.12-.13,2.25-.38,3.62m-12.11-11c-3.13,0-5.25,2.37-5.62,5.87h10.61c.13-3.62-1.87-5.87-5-5.87" transform="translate(0 -249.47)"/><path class="cls-1" d="M709.31,729a26.48,26.48,0,0,1-6.5-.75l.5-6.12a16.22,16.22,0,0,0,6.12,1.25c2.75,0,4.62-1.25,4.62-3.12,0-5.12-11.74-2.12-11.74-11.87,0-5.12,3.87-9.24,12.24-9.24a24.41,24.41,0,0,1,5.25.62l-.37,5.75a17.81,17.81,0,0,0-5.25-.75c-2.87,0-4.25,1.12-4.25,3.12,0,4.75,12,2.38,12,11.87.13,5.37-5,9.24-12.61,9.24" transform="translate(0 -249.47)"/><path class="cls-1" d="M755.28,729C742.91,729,740,722.3,740,714.8V689.07h7.62V714.3c0,4.88,1.62,8.5,8.12,8.5,5.87,0,8.24-2.5,8.24-9.25V689.07h7.5v24c0,10.87-5.87,16-16.24,16" transform="translate(0 -249.47)"/><path class="cls-1" d="M799.25,728.42V709.93c0-2.87-.75-4.87-3.5-4.87-3.75,0-6.74,4.37-6.74,9.37v13.86h-7.37V705.06c-1.38-.25-3.38-.5-5-.63v-4.49a76.11,76.11,0,0,1,12.12-.5,36.68,36.68,0,0,1-.38,5.12h0a10.85,10.85,0,0,1,9.87-5.75c6.5,0,8.62,4.13,8.62,9.25v20.23h-7.62" transform="translate(0 -249.47)"/><path class="cls-1" d="M816.61,728.42V705.18c-1.37-.25-3.37-.5-5-.62v-4.5a79.23,79.23,0,0,1,12.37-.5v28.86h-7.38m3.63-33.23a4.5,4.5,0,1,1,0-9,4.5,4.5,0,0,1,4.62,4.49,4.36,4.36,0,0,1-4.62,4.5" transform="translate(0 -249.47)"/><path class="cls-1" d="M846.47,728.42h-7.62l-10.74-28.73h8.12l4.62,12.86c.62,2.13,1.37,4.5,1.87,6.38h.13c.5-1.88,1-4.13,1.75-6.25l4.62-13.12h7.87l-10.62,28.86" transform="translate(0 -249.47)"/><path class="cls-1" d="M884.32,715.3H866.46c0,5.25,2.62,8,8,8a20.3,20.3,0,0,0,8.37-1.88l.88,5.63a29.73,29.73,0,0,1-10.5,1.87c-9.11,0-14.24-4.5-14.24-14.74,0-8.87,4.88-15.37,13.62-15.37,8.49,0,12.12,5.75,12.12,12.87-.13,1.12-.25,2.25-.38,3.62m-12.12-11c-3.12,0-5.24,2.37-5.62,5.87H877.2c.13-3.62-1.87-5.87-5-5.87" transform="translate(0 -249.47)"/><path class="cls-1" d="M907.31,706.31c-5.5-1.25-8.25,2.37-8.25,10.37v11.74h-7.37V705.18a50.63,50.63,0,0,0-5.12-.62v-4.5a76.31,76.31,0,0,1,12-.5,33,33,0,0,1-.5,5.75h.13c1.37-3.62,4.25-6.87,9.37-6.37l-.25,7.37" transform="translate(0 -249.47)"/><path class="cls-1" d="M917.68,729a24.69,24.69,0,0,1-6.37-.75l.5-6.12a16.14,16.14,0,0,0,6.12,1.25c2.74,0,4.62-1.25,4.62-3.12,0-5.12-11.74-2.12-11.74-11.87,0-5.12,3.87-9.24,12.24-9.24a25.33,25.33,0,0,1,5.24.62l-.37,5.75a18.36,18.36,0,0,0-5.25-.75c-2.87,0-4.24,1.12-4.24,3.12,0,4.75,12,2.38,12,11.87,0,5.37-5,9.24-12.74,9.24" transform="translate(0 -249.47)"/><path class="cls-1" d="M937.66,728.42V705.18a50.63,50.63,0,0,0-5.12-.62v-4.5a80.21,80.21,0,0,1,12.49-.5v28.86h-7.37m3.63-33.23a4.5,4.5,0,1,1,0-9,4.5,4.5,0,1,1,0,9" transform="translate(0 -249.47)"/><path class="cls-1" d="M962.77,729c-6.37,0-8.37-2.37-8.37-9.11V705.31h-5v-5.62h5v-9l7.37-2v11h7v5.62h-7v12.74c0,3.75.88,4.87,3.38,4.87a13.91,13.91,0,0,0,3.37-.37l.5,5.74a33.7,33.7,0,0,1-6.25.75" transform="translate(0 -249.47)"/><path class="cls-1" d="M988.38,730.17c-3.75,10-7.87,12.74-14.49,12.74a21.93,21.93,0,0,1-4.12-.37l.87-6.38a12.15,12.15,0,0,0,3.63.63c2.49,0,5-1.12,6.62-5.62l.87-2.63-10.62-28.73h8.25l3.87,11c.87,2.49,1.62,5.37,2.25,8h0c.62-2.62,1.87-6.5,2.75-9.12l3.37-9.74h8l-11.25,30.23" transform="translate(0 -249.47)"/><path class="cls-2" d="M119.8,631.73a3.68,3.68,0,0,0-.5-1.25,15.47,15.47,0,0,0-5.5-7.12c-1.25-.87-2-.75-2.37-.37s-.37,1,.25,1.87a19,19,0,0,1,3.5,9.74,25.27,25.27,0,0,1-1.25,10.25c-2.25,6.12-7.62,10.87-10.62,13.36a14.56,14.56,0,0,0-1.87,1.75c-.25.5-.5,1.25-.88,2.25a23,23,0,0,1-3.62,7.62,12.32,12.32,0,0,1-9,4.75c-3.13,0-4.13-3.37-5.25-7.25-1.38-4.62-2.87-9.87-8.75-9.87a9.4,9.4,0,0,0-3.49.63,6.32,6.32,0,0,0-3,3,5.49,5.49,0,0,0-2.63,2.75,3.54,3.54,0,0,0-.12,1.12,3.47,3.47,0,0,0,.5,1.87h.62c0-.25.38-1.5,2.25-1.5a2,2,0,0,1,1.75,1,3.93,3.93,0,0,1,.5,2,6.08,6.08,0,0,1-2.12,4.37,7.52,7.52,0,0,1-5.12,2,12.15,12.15,0,0,1-9-4.74,22,22,0,0,1-3.62-7.62c-.38-1-.63-1.75-.88-2.25a13.22,13.22,0,0,0-1.87-1.75c-2.87-2.5-8.37-7.25-10.62-13.37a25,25,0,0,1-1.25-10.24c.25-2.75,1-6.75,3.5-9.75.63-.87.63-1.49.25-1.87s-1.12-.5-2.37.38a14.83,14.83,0,0,0-5.5,7.12c-.12.37-.37.87-.5,1.25a1.53,1.53,0,0,0-.75-.13c-1.25.5-2.5,4.25-3,5.87a29,29,0,0,0-1.25,8.25h-.37c-.88.25-1.38,2-1.38,2.37a22.25,22.25,0,0,0-.62,6.5v.5a23.74,23.74,0,0,0,.87,6.62.46.46,0,0,0-.37.12c-.62.38-.87,1.5-.87,3.5a20.67,20.67,0,0,0,3.12,10.24,1.66,1.66,0,0,0-.5.38c-.38.62-.13,1.87.62,3.87a23.94,23.94,0,0,0,2.38,4.37,24.87,24.87,0,0,0,5.24,5.87,2.28,2.28,0,0,0,.13,2c.87,1.75,3.75,4,7.74,6.25a2.79,2.79,0,0,0,.75,2.25c1.75,2.25,6.5,4.12,9.12,4.87a45.31,45.31,0,0,0,9.62,2.12,4.64,4.64,0,0,1,.63,2.75c0,1-1.38,3.5-2.63,6-2,3.74-3.25,6.12-2.75,7,.13.13.25.38.63.38h.12c-.12.5-.37,1.25-.5,2a.12.12,0,0,1-.12-.13,2.56,2.56,0,0,0-1.75-.12,5,5,0,0,0-2.75,2,9.85,9.85,0,0,0-.75,2,77.88,77.88,0,0,1-10.49-4.49l4-17.12a56.84,56.84,0,0,1,3.49-98.44L35.73,597A74.11,74.11,0,0,0,28,716.8l-5,12.74h0c0,2.5,7.12,8,16.24,12.5a86.22,86.22,0,0,0,36.1,8.49,86.22,86.22,0,0,0,36.1-8.49c9.12-4.5,16.24-10,16.24-12.5h0l-5-12.74A74.12,74.12,0,0,0,114.93,597l-13.12,12.49a56.84,56.84,0,0,1,3.5,98.44l4,17.12a78,78,0,0,1-10.5,4.49h0a3.78,3.78,0,0,0-.75-2,4.55,4.55,0,0,0-2.74-2,2.64,2.64,0,0,0-1.75.12.13.13,0,0,0-.13.13c-.25-.75-.37-1.5-.5-2h.13c.37,0,.62-.13.62-.38.5-.87-.62-3.25-2.75-7-1.37-2.5-2.62-5-2.62-6a4.39,4.39,0,0,1,.62-2.75,46.78,46.78,0,0,0,9.62-2.12c2.63-.88,7.25-2.62,9.12-4.87a2.72,2.72,0,0,0,.75-2.25c4-2.25,6.87-4.5,7.75-6.25a2.3,2.3,0,0,0,.12-2,24.93,24.93,0,0,0,5.25-5.87c.62-1.12,1.62-2.75,2.37-4.37.88-2,1-3.25.63-3.87a1.8,1.8,0,0,0-.5-.38,19.52,19.52,0,0,0,3.12-10.24c0-2-.25-3.12-.87-3.5-.13,0-.25-.12-.38-.12a24.58,24.58,0,0,0,.88-6.62v-.5a21.51,21.51,0,0,0-.63-6.5c-.12-.37-.5-2.12-1.37-2.37h-.38a28.27,28.27,0,0,0-1.25-8.25c-.5-1.62-1.62-5.37-3-5.87.25-.12-.12-.12-.37,0" transform="translate(0 -249.47)"/><path class="cls-3" d="M87.45,732.29v-2.5c.25-1.25.62-2,2.12-2.12a13.75,13.75,0,0,1-1-2.75h0c-.38,0-.87-.5-2-2.25-.12-.12-.12-.25-.25-.37a12.68,12.68,0,0,1,.5,2.25c.13.62.25,3.74-.37,4.49a.51.51,0,0,1-.5.25,4.4,4.4,0,0,1-3.13-1.87,4.52,4.52,0,0,1-.87,2.5,1.07,1.07,0,0,1-.75.37c-.75,0-1.87-1.12-2.75-2.37-.5,1.87-1.62,3.62-3,3.62s-2.5-1.75-3-3.62c-.74,1.25-1.87,2.37-2.74,2.37a1.07,1.07,0,0,1-.75-.37,4.6,4.6,0,0,1-.88-2.5A4.23,4.23,0,0,1,65,729.29c-.13,0-.25,0-.5-.25-.62-.75-.5-3.87-.38-4.49s.25-1.25.5-2.25c-.12.12-.12.25-.25.37-1.12,1.75-1.62,2.25-2,2.25h0c-.38,1-.75,1.88-1,2.75,1.37,0,1.87.87,2,2.12v2.5a74.15,74.15,0,0,0,11.86,1,75.38,75.38,0,0,0,12.25-1" transform="translate(0 -249.47)"/><path class="cls-2" d="M82.07,593.5a6.35,6.35,0,0,0-.37,1.13v-.38A9.91,9.91,0,0,0,81,590h-.5c-.38.62-1.12,1.87-1.62,2.62a9.15,9.15,0,0,0-.13-1.75A18.08,18.08,0,0,0,76,584.13H75.2a16.85,16.85,0,0,0-2.75,6.75,9.89,9.89,0,0,0-.12,1.75A28.62,28.62,0,0,1,70.71,590h-.5a10.07,10.07,0,0,0-.75,4.24v.38a11.37,11.37,0,0,1-.38-1.13h-.75a12.13,12.13,0,0,0-.25,4.63,2.32,2.32,0,0,0,.13.87v.25h.25a42,42,0,0,0,14.49,0h.25V599a2.5,2.5,0,0,1,.12-.87,11,11,0,0,0-.25-4.5h-1" transform="translate(0 -249.47)"/><path class="cls-4" d="M72.83,593.63v-.75a16,16,0,0,1,2.62-8.12,14.81,14.81,0,0,1,2.63,8.12v.75l.5.25s1.49-2.37,1.87-3a11.44,11.44,0,0,1,.5,3.5,19.45,19.45,0,0,1-.13,2.25l.63.12s.62-1.5.87-2.37a9.31,9.31,0,0,1,.25,1.75c0,.62-.12,1.37-.12,2v.62a37.12,37.12,0,0,1-7,.63,38.61,38.61,0,0,1-7-.63v-.62c0-.5-.13-1.13-.13-1.75a5.83,5.83,0,0,1,.25-2c.38.87.88,2.37.88,2.37l.62-.12a21,21,0,0,1-.12-2.25,11.1,11.1,0,0,1,.5-3.5c.5.75,1.87,3,1.87,3l.5-.25" transform="translate(0 -249.47)"/><path class="cls-2" d="M61.34,606.75v20.61l14.11,5.87,14.12-5.87v-22S76.08,611,75.45,611.24l-14.11-5.87v1.38" transform="translate(0 -249.47)"/><path class="cls-5" d="M63.09,608.12c2,.87,12.36,5.25,12.36,5.25s10.37-4.25,12.37-5.13v18.12c-1,.37-11.74,4.87-12.37,5.12-.62-.25-11.37-4.75-12.36-5.25V608.12" transform="translate(0 -249.47)"/><polygon class="cls-2" points="75.45 365.4 64.58 360.77 64.58 375.76 75.45 380.39 86.45 375.76 86.45 360.77 75.45 365.4"/><path class="cls-2" d="M90.32,630.61l-14.74,7-15.74-7.49-.13.25a27.11,27.11,0,0,1-2.87-2.13l-.13-.12h-.12l-3.75.37-.12.25L54.84,632H55a15.21,15.21,0,0,1,3.37,1l-.13.25,13.25,6.25-4.88,2.37a51.74,51.74,0,0,0-5.62,3c-2.12,1.25-2.87,2.12-2.62,2.75,0,.12.12.25.37.37,1.38.5,6.37-1.75,9.25-3l7.37-3.5L82.7,645c2.87,1.38,7.87,3.5,9.24,3,.25-.12.38-.25.38-.37s.12-.25,0-.5c-.5-1.38-5.37-3.88-8.25-5.25l-4.87-2.37,12.24-5.88a2.24,2.24,0,0,0,1.25-.12,9.86,9.86,0,0,0,4.37-4.12l.13-.38-.38-.12a12.85,12.85,0,0,0-5.87.75c-.12.37-.5.62-.62,1" transform="translate(0 -249.47)"/><path class="cls-2" d="M83.57,600a51.57,51.57,0,0,1-8,.87,53.24,53.24,0,0,1-8-.87l-.37-.12v.37a9.12,9.12,0,0,0,1.87,6,8.19,8.19,0,0,0,6.25,2.37c2.75,0,4.87-.75,6.37-2.37a8.88,8.88,0,0,0,2.12-6v-.37l-.25.12" transform="translate(0 -249.47)"/><path class="cls-6" d="M20.74,690.32a61.79,61.79,0,0,1-8-30.61A62.69,62.69,0,0,1,43.85,605.5L48,609.37a57.49,57.49,0,0,0-23.24,77.2" transform="translate(0 -249.47)"/><line class="cls-7" x1="24.86" y1="437.1" x2="20.74" y2="440.85"/><path class="cls-4" d="M44.6,707.93l-15.87,8.5a71.68,71.68,0,0,1-15.86-18.24l12.24-11.12h0A56.75,56.75,0,0,0,44.6,707.93" transform="translate(0 -249.47)"/><path class="cls-2" d="M41.1,724.67a83.28,83.28,0,0,1-11.74-7.74L45,708.56,41.1,724.67" transform="translate(0 -249.47)"/><path class="cls-5" d="M39.73,601.5l3.74,3.62a63.27,63.27,0,0,0-23.11,85.57l-3.75,3.5A68.33,68.33,0,0,1,39.73,601.5" transform="translate(0 -249.47)"/><path class="cls-6" d="M130.29,690.32a61.68,61.68,0,0,0,8-30.61,62.69,62.69,0,0,0-31.11-54.21l-4.12,3.87a57.49,57.49,0,0,1,23.24,77.2" transform="translate(0 -249.47)"/><line class="cls-7" x1="126.17" y1="437.1" x2="130.29" y2="440.85"/><path class="cls-4" d="M106.43,707.93l15.87,8.5a71.68,71.68,0,0,0,15.86-18.24h0l-12.24-11.12a56.75,56.75,0,0,1-19.49,20.86" transform="translate(0 -249.47)"/><path class="cls-2" d="M110.06,724.67a83.28,83.28,0,0,0,11.74-7.74l-15.62-8.37,3.88,16.11" transform="translate(0 -249.47)"/><path class="cls-5" d="M111.31,601.5l-3.75,3.62a63.27,63.27,0,0,1,23.11,85.57l3.75,3.5a68.68,68.68,0,0,0-23.11-92.69" transform="translate(0 -249.47)"/><path class="cls-5" d="M59.46,630.86l-.75,1.62a28.64,28.64,0,0,0-3.49-1c-.13-.12-.88-1.25-1.38-2l3,1.38.25-.5L54.22,629c.87-.12,2.12-.25,2.37-.25a10.42,10.42,0,0,0,2.87,2.13" transform="translate(0 -249.47)"/><path class="cls-5" d="M90.69,632.35a1.68,1.68,0,0,1,0-1.12,1.74,1.74,0,0,1,.75-.87,12.94,12.94,0,0,1,5.12-.75A10.55,10.55,0,0,1,92.69,633a2,2,0,0,1-2-.63" transform="translate(0 -249.47)"/><path class="cls-4" d="M72.83,593.63v-.75a16,16,0,0,1,2.62-8.12,14.81,14.81,0,0,1,2.63,8.12v.75l.5.25s1.49-2.37,1.87-3a11.44,11.44,0,0,1,.5,3.5,19.45,19.45,0,0,1-.13,2.25l.63.12s.62-1.5.87-2.37a9.31,9.31,0,0,1,.25,1.75c0,.62-.12,1.37-.12,2v.62a37.12,37.12,0,0,1-7,.63,38.61,38.61,0,0,1-7-.63v-.62c0-.5-.13-1.13-.13-1.75a5.83,5.83,0,0,1,.25-2c.38.87.88,2.37.88,2.37l.62-.12a21,21,0,0,1-.12-2.25,11.1,11.1,0,0,1,.5-3.5c.5.75,1.87,3,1.87,3l.5-.25" transform="translate(0 -249.47)"/><path class="cls-2" d="M61.34,606.75v20.61l14.11,5.87,14.12-5.87v-22S76.08,611,75.45,611.24l-14.11-5.87v1.38" transform="translate(0 -249.47)"/><path class="cls-5" d="M63.09,608.12c2,.87,12.36,5.25,12.36,5.25s10.37-4.25,12.37-5.13v18.12c-1,.37-11.74,4.87-12.37,5.12-.62-.25-11.37-4.75-12.36-5.25V608.12" transform="translate(0 -249.47)"/><polygon class="cls-2" points="75.45 365.4 64.58 360.77 64.58 375.76 75.45 380.39 86.45 375.76 86.45 360.77 75.45 365.4"/><path class="cls-5" d="M90.69,632.35a1.68,1.68,0,0,1,0-1.12,1.74,1.74,0,0,1,.75-.87,12.94,12.94,0,0,1,5.12-.75A10.55,10.55,0,0,1,92.69,633a2,2,0,0,1-2-.63" transform="translate(0 -249.47)"/><path class="cls-3" d="M73,714.05c-.37,4.25-.75,10.25-.62,11.75,0,.37.12.87.12,1.25-.74,1.37-2,2.62-2.49,2.62a.46.46,0,0,1-.38-.13c-.5-.5-.75-2.24-.75-3.74a48.17,48.17,0,0,1,.88-6c.25-1.37.5-2.87.75-4.12A6.18,6.18,0,0,1,73,714.05" transform="translate(0 -249.47)"/><path class="cls-3" d="M69.71,716.18c-.13,1.12-.38,2.37-.63,3.5a51,51,0,0,0-.87,6v.75a4.21,4.21,0,0,1-3.13,2.25c-.12,0-.25-.5-.37-1.75v-.87a5.32,5.32,0,0,1,.12-1.5c.13-.63.5-2.13,1-3.88a32.81,32.81,0,0,1,3.88-4.49" transform="translate(0 -249.47)"/><path class="cls-3" d="M75.58,713.43a5.2,5.2,0,0,1,2,.37c.37,4.25.87,10.5.75,11.87-.13,2.13-1.38,5.12-2.75,5.12s-2.5-3-2.75-5.12c-.13-1.37.37-7.62.75-11.87a5.16,5.16,0,0,1,2-.37" transform="translate(0 -249.47)"/><path class="cls-3" d="M78.2,714.05c.38,4.25.75,10.25.75,11.75,0,.37-.12.87-.12,1.25.75,1.37,2,2.62,2.49,2.62a.46.46,0,0,0,.38-.13c.5-.5.75-2.24.75-3.74a48.17,48.17,0,0,0-.88-6c-.25-1.37-.5-2.87-.75-4.12a8.67,8.67,0,0,0-2.62-1.63" transform="translate(0 -249.47)"/><path class="cls-3" d="M81.32,716.18c.13,1.12.38,2.37.63,3.5a51,51,0,0,1,.87,6v.75A4.21,4.21,0,0,0,86,728.67c.12,0,.25-.5.37-1.75v-.87a5.32,5.32,0,0,0-.12-1.5c-.13-.63-.5-2.13-1-3.88a25.76,25.76,0,0,0-3.88-4.49" transform="translate(0 -249.47)"/><path class="cls-8" d="M59.09,731.54c0-1.62,1.37-3.25,2.37-3.25s1.38.38,1.63,1.63v2.25a9.68,9.68,0,0,0-1.25-.25l-.13.12a2.24,2.24,0,0,0-.5,1.25,3.84,3.84,0,0,0,.5,2c-2.12-.25-2.62-2.5-2.62-3.75" transform="translate(0 -249.47)"/><path class="cls-8" d="M62,724.67c-.37,1.13-.75,2.13-1.12,3a1.89,1.89,0,0,0-.63.37c0-.12-.12-.12-.12-.24a2.08,2.08,0,0,0-1.5-.88h-.13a2.25,2.25,0,0,0-.62-1c.25-1.12.62-2.12.62-2.5.25-.12.38-.25.63-.25a2,2,0,0,1,1.12-.37c.38,0,.63.5,1,1a2.68,2.68,0,0,0,.75.87" transform="translate(0 -249.47)"/><path class="cls-8" d="M55.34,729.42a3.49,3.49,0,0,0-1,.87,5,5,0,0,0-.62,2,2.38,2.38,0,0,1-.88-1.37,1.94,1.94,0,0,1-.12-.88,6.59,6.59,0,0,1,.62-2.37,4.29,4.29,0,0,1,2.38-1.75,2.14,2.14,0,0,1,1.24,0c.5.25.88.63.88,1a4.87,4.87,0,0,0-2.5,2.5" transform="translate(0 -249.47)"/><path class="cls-8" d="M58.46,730.92a2.93,2.93,0,0,0-1.12,1.62c0,.25-.13.5-.13.75a4.71,4.71,0,0,0,.25,1.38,2.81,2.81,0,0,1-1.37-1,3.79,3.79,0,0,1-.62-2.38,1.91,1.91,0,0,1,.12-.87c.25-1.63,1.87-3,2.87-2.87.63.12,1,.25,1.13.62,0,.12.12.12.12.25a7.72,7.72,0,0,0-1.25,2.5" transform="translate(0 -249.47)"/><path class="cls-9" d="M48,701.06a32.45,32.45,0,0,0,5.25,4.12c-.25-.12-.5-.12-.75-.25-4.38-1.49-7.5-3.12-8.75-4.74a2.62,2.62,0,0,1-.62-1.5c.75.37,1.62.87,2.5,1.25s1.5.75,2.37,1.12" transform="translate(0 -249.47)"/><path class="cls-9" d="M37,686.57c1,3,5.62,7.25,9.12,9.74-1.13-.49-2.25-1-3.25-1.49-5.87-3-10.5-6.88-13-10.87-1.88-3-3.5-6.75-3-7.62a.52.52,0,0,1,.37-.13,39,39,0,0,0,8.5,9.25A9.08,9.08,0,0,0,37,686.57" transform="translate(0 -249.47)"/><path class="cls-9" d="M40.6,688.32c-1.62-1-3.12-2.12-4.62-3.25a38.78,38.78,0,0,1-8.5-9.24,19.21,19.21,0,0,1-3.37-10.37c0-2.37.37-2.87.62-3a.18.18,0,0,1,.25,0,26,26,0,0,0,1.63,4.37A37.58,37.58,0,0,0,32.73,676c.75,3.38,2.87,6.5,4.37,8.62,1.13,1.25,2.38,2.63,3.5,3.75" transform="translate(0 -249.47)"/><path class="cls-9" d="M43.47,695.82a23.11,23.11,0,0,0,4.62,4.62,17.86,17.86,0,0,0-2.37-1c-5.5-2.63-9.49-5.5-10.49-7.62a1.61,1.61,0,0,1-.25-1.25,48.64,48.64,0,0,0,7.49,4.87,8.21,8.21,0,0,1,1,.38" transform="translate(0 -249.47)"/><path class="cls-9" d="M37,679.2c-.88-.75-1.75-1.62-2.5-2.37a36.07,36.07,0,0,1-7.12-10.25,26.89,26.89,0,0,1-2.63-11.36v-.5a20.72,20.72,0,0,1,.63-6.38c.25-1,.62-1.74,1-1.87.12,0,.12,0,.25.13a44.24,44.24,0,0,0,2.75,11.74c.37,1,.87,2,1.25,3a25,25,0,0,0,2.62,11A30.21,30.21,0,0,0,37,679.2" transform="translate(0 -249.47)"/><path class="cls-8" d="M89.69,732.54a1.76,1.76,0,0,1,.25.88,3.9,3.9,0,0,1-.5,2c2.13-.38,2.63-2.63,2.63-3.88,0-1.62-1.38-3.25-2.25-3.25s-1.38.38-1.63,1.63v2.25a9.68,9.68,0,0,1,1.25-.25l.13.12a1,1,0,0,0,.12.5" transform="translate(0 -249.47)"/><path class="cls-8" d="M89.07,724.67c.37,1.13.75,2.13,1.12,3a1.89,1.89,0,0,1,.63.37c0-.12.12-.12.12-.24a1.85,1.85,0,0,1,1.5-.88h.13a2.25,2.25,0,0,1,.62-1c-.25-1.12-.62-2.12-.62-2.5-.25-.12-.38-.25-.63-.25a2,2,0,0,0-1.12-.37c-.38,0-.63.5-1,1a1.34,1.34,0,0,1-.75.87" transform="translate(0 -249.47)"/><path class="cls-8" d="M95.82,729.42a3.45,3.45,0,0,1,1,.87,8.89,8.89,0,0,1,.63,2,2.32,2.32,0,0,0,.87-1.37,1.8,1.8,0,0,0,.13-.88,6.59,6.59,0,0,0-.63-2.37,4.27,4.27,0,0,0-2.37-1.75,2.17,2.17,0,0,0-1.25,0,1.66,1.66,0,0,0-.87,1,5.39,5.39,0,0,1,2.5,2.5" transform="translate(0 -249.47)"/><path class="cls-8" d="M92.57,730.92a2.93,2.93,0,0,1,1.12,1.62v.75a4.41,4.41,0,0,1-.25,1.38,2.84,2.84,0,0,0,1.38-1,3.79,3.79,0,0,0,.62-2.38,1.91,1.91,0,0,0-.12-.87c-.25-1.63-1.88-3-2.88-2.87-.62.12-1,.25-1.12.62,0,.12-.13.12-.13.25a4.19,4.19,0,0,1,1.38,2.5" transform="translate(0 -249.47)"/><path class="cls-9" d="M103.19,701.06a33.39,33.39,0,0,1-5.25,4.12c.25-.12.5-.12.75-.25,4.37-1.49,7.49-3.12,8.74-4.74a2.57,2.57,0,0,0,.63-1.5c-.75.37-1.63.87-2.5,1.25s-1.62.75-2.37,1.12" transform="translate(0 -249.47)"/><path class="cls-9" d="M114.05,686.57c-1,3-5.62,7.25-9.12,9.74,1.13-.49,2.25-1,3.25-1.49,5.87-3,10.5-6.88,13-10.87,1.88-3,3.5-6.75,3-7.62a.52.52,0,0,0-.37-.13,39,39,0,0,1-8.5,9.25c-.25.5-.75.75-1.25,1.12" transform="translate(0 -249.47)"/><path class="cls-9" d="M110.56,688.32a40.69,40.69,0,0,0,4.49-3.25,38.78,38.78,0,0,0,8.5-9.24,19.21,19.21,0,0,0,3.37-10.37c0-2.37-.37-2.87-.62-3a.18.18,0,0,0-.25,0,26,26,0,0,1-1.63,4.37A37.58,37.58,0,0,1,118.3,676c-.75,3.38-2.87,6.5-4.37,8.62a48.13,48.13,0,0,1-3.37,3.75" transform="translate(0 -249.47)"/><path class="cls-9" d="M107.68,695.82a22.85,22.85,0,0,1-4.62,4.62,18.43,18.43,0,0,1,2.37-1c5.5-2.63,9.5-5.5,10.5-7.62a1.65,1.65,0,0,0,.25-1.25,48.75,48.75,0,0,1-7.5,4.87,4.2,4.2,0,0,0-1,.38" transform="translate(0 -249.47)"/><path class="cls-9" d="M114.18,679.2c.87-.75,1.75-1.62,2.5-2.37a36.27,36.27,0,0,0,7.12-10.25,26.87,26.87,0,0,0,2.62-11.36v-.5a21,21,0,0,0-.62-6.38c-.25-1-.63-1.74-1-1.87-.13,0-.13,0-.25.13a40,40,0,0,1-2.75,11.74c-.38,1-.88,2-1.25,3,.12,3-.87,7-2.62,11a36.27,36.27,0,0,1-3.75,6.87" transform="translate(0 -249.47)"/><path class="cls-10" d="M75.58,712.8c-5.25,0-9.37,6.25-11.5,9.5a13.44,13.44,0,0,1-1.49,2c-.25,0-.5-.5-.88-.88-.37-.62-.75-1.25-1.5-1.25a2.26,2.26,0,0,0-1.37.5,2,2,0,0,1-1.13.38h-.12c-.13-.13-.13-.63.62-2.25.5-1.25,1.38-2.62,2.13-4.12,1.37-2.63,2.75-5.12,2.75-6.25,0-2.5-.88-3.25-.88-3.25h0a13.77,13.77,0,0,1-3.62-2.75c1,.13,2,.25,2.87.38l-.5-.63a2.18,2.18,0,0,1-.87-.12,12.7,12.7,0,0,1-4-3.75c1.25.25,2.5.5,3.75.63l-.38-.63c-.37,0-.75-.12-1.12-.12a12.59,12.59,0,0,1-4.5-5c1.38.38,2.75.63,4.12.87l-.12-.62L56,695.07a18.26,18.26,0,0,1-4-5.63,39.2,39.2,0,0,0,5.37,1.88v-.63c-.63-.25-1.37-.37-2-.62a17.67,17.67,0,0,1-6-7.75A48,48,0,0,0,57,686.07l.25-.5c-.87-.37-1.87-.75-2.74-1.12a27.4,27.4,0,0,1-6-9.37,33.32,33.32,0,0,0,9,5.74l.25-.5c-8.74-3.62-15.36-12-18.73-17a62,62,0,0,1-6.25-11.62,26.44,26.44,0,0,1-2.25-9.25A32.82,32.82,0,0,1,32.23,631a14.6,14.6,0,0,1,5.37-6.87c.88-.62,1.5-.62,1.63-.5s.12.5-.38,1c-2.5,3.12-3.37,7.24-3.62,10.12a26.28,26.28,0,0,0,1.25,10.49c2.25,6.25,7.74,11,10.74,13.62A12.91,12.91,0,0,1,49,660.46a8,8,0,0,1,.75,2.13,21.63,21.63,0,0,0,3.75,7.74,13.19,13.19,0,0,0,9.49,5,8.18,8.18,0,0,0,5.5-2.13,6.14,6.14,0,0,0,2.25-4.74c0-1.38-.75-3.63-2.88-3.63a2.49,2.49,0,0,0-2.5,1.38,3.83,3.83,0,0,1-.25-1.13,1.78,1.78,0,0,1,.13-.87,4.45,4.45,0,0,1,2.5-2.37h.12v-.13c1.38-3,3.75-3.37,6-3.37a6.47,6.47,0,0,1,5.62,3c1.25,1.75,1.87,4.12,2.62,6.49,1.13,3.87,2.25,7.62,5.75,7.62a12.57,12.57,0,0,0,9.49-5c2.13-2.63,3-5.75,3.75-7.75a7.75,7.75,0,0,1,.75-2.12,12.74,12.74,0,0,1,1.75-1.63c3-2.5,8.5-7.37,10.74-13.61a26,26,0,0,0,1.25-10.5,18.59,18.59,0,0,0-3.62-10.12c-.37-.5-.5-.87-.37-1s.74-.12,1.62.5a14.57,14.57,0,0,1,5.37,6.88,32.51,32.51,0,0,1,1.75,11.49,25.78,25.78,0,0,1-2.25,9.24,55.73,55.73,0,0,1-6.24,11.62c-3.25,4.87-9.87,13.37-18.74,17l.25.5a30.48,30.48,0,0,0,9-5.75,25.49,25.49,0,0,1-6,9.37c-.87.38-1.74.75-2.74,1.13l.25.5a43.46,43.46,0,0,0,7.62-3.75,17.64,17.64,0,0,1-6,7.74,12.5,12.5,0,0,1-2,.63v.62a38.7,38.7,0,0,0,5.37-1.87,18.47,18.47,0,0,1-4,5.62l-1.88.38-.12.62a28.43,28.43,0,0,0,4.12-.87,12.42,12.42,0,0,1-4.5,5c-.37,0-.75.13-1.12.13l-.38.62a37.57,37.57,0,0,0,3.75-.62,12.68,12.68,0,0,1-4,3.74,1.78,1.78,0,0,0-.87.13l-.5.62a12.09,12.09,0,0,0,2.87-.37,11.58,11.58,0,0,1-3.62,2.75h0c-.13.12-.87.75-.87,3.25,0,1.12,1.37,3.62,2.74,6.24.75,1.5,1.63,2.88,2.13,4.12.75,1.75.62,2.13.62,2.25h-.12a2,2,0,0,1-1.13-.37,2.59,2.59,0,0,0-1.37-.5c-.75,0-1.13.62-1.5,1.25s-.5.87-.88.87a13,13,0,0,1-1.49-2c-1.88-3.37-5.88-9.62-11.12-9.62" transform="translate(0 -249.47)"/><path class="cls-10" d="M44.72,678.2a48.28,48.28,0,0,1-8.62-8.87c-.12-.12-.25-.37-.37-.5h0c-1.88-3.5-3.5-11.74-3-16.24a65.59,65.59,0,0,0,5.87,10.75c.25.37.5.62.75,1a30,30,0,0,0,5.37,13.87" transform="translate(0 -249.47)"/><path class="cls-10" d="M53.59,703.06a12.32,12.32,0,0,0,3.5,3.12c-.5-.12-1-.25-1.37-.37a32.15,32.15,0,0,1-6.25-4.25,26.27,26.27,0,0,0,4.12,1.5" transform="translate(0 -249.47)"/><path class="cls-10" d="M46.47,692.32c.88,1.87,3.5,4.62,5.87,6.37-1.25-.38-2.37-.75-3.62-1.13-3-1.74-8.87-6.62-10.74-10.11a73.21,73.21,0,0,0,8.49,4.87" transform="translate(0 -249.47)"/><path class="cls-10" d="M49.59,692.94a35.53,35.53,0,0,1-6.24-3c-3-2.24-8-7.62-9.75-13.11.13.12.25.25.25.37a46.07,46.07,0,0,0,8.5,7c.75,2.12,4.5,6.37,7.24,8.74" transform="translate(0 -249.47)"/><path class="cls-10" d="M51.72,701.81a19.69,19.69,0,0,1-7.12-5.5,45.59,45.59,0,0,0,5.87,2.25,16.15,16.15,0,0,0,4.12,4.13c-.87-.25-1.87-.5-2.87-.88" transform="translate(0 -249.47)"/><path class="cls-10" d="M47,686.32a65.9,65.9,0,0,1-7.87-5.12,35.84,35.84,0,0,1-5.5-9,28.65,28.65,0,0,1-2.49-9.61,48.79,48.79,0,0,0,4.49,7.24,45,45,0,0,0,3.88,4.5A24.18,24.18,0,0,0,43.35,682,32,32,0,0,0,47,686.32" transform="translate(0 -249.47)"/><path class="cls-10" d="M106.31,678.2a48.28,48.28,0,0,0,8.62-8.87c.12-.12.25-.37.37-.5h0c1.88-3.5,3.5-11.74,3-16.24a65.59,65.59,0,0,1-5.87,10.75c-.25.37-.5.62-.75,1a27.53,27.53,0,0,1-5.37,13.87" transform="translate(0 -249.47)"/><path class="cls-10" d="M97.56,703.06a12.27,12.27,0,0,1-3.49,3.12c.5-.12,1-.25,1.37-.37a32.45,32.45,0,0,0,6.25-4.25,32.17,32.17,0,0,1-4.13,1.5" transform="translate(0 -249.47)"/><path class="cls-10" d="M104.68,692.32c-.87,1.87-3.49,4.62-5.87,6.37l3.63-1.13c3-1.74,8.87-6.62,10.74-10.11a84.92,84.92,0,0,1-8.5,4.87" transform="translate(0 -249.47)"/><path class="cls-10" d="M101.56,692.94a35.61,35.61,0,0,0,6.25-3c3-2.24,8-7.62,9.74-13.11-.12.12-.25.25-.25.37a46,46,0,0,1-8.49,7c-.75,2.12-4.5,6.37-7.25,8.74" transform="translate(0 -249.47)"/><path class="cls-10" d="M99.31,701.81a19.69,19.69,0,0,0,7.12-5.5,45.59,45.59,0,0,1-5.87,2.25,16.15,16.15,0,0,1-4.12,4.13,18.52,18.52,0,0,0,2.87-.88" transform="translate(0 -249.47)"/><path class="cls-10" d="M104.06,686.32a65.9,65.9,0,0,0,7.87-5.12,35.66,35.66,0,0,0,5.62-9,28.69,28.69,0,0,0,2.5-9.61,49.72,49.72,0,0,1-4.5,7.24,46.27,46.27,0,0,1-3.87,4.5,24.39,24.39,0,0,1-3.87,7.62,45.86,45.86,0,0,1-3.75,4.37" transform="translate(0 -249.47)"/><path class="cls-5" d="M46.35,679.45a31.29,31.29,0,0,1-4.25-7.12,25.85,25.85,0,0,1-2.12-7A51.53,51.53,0,0,0,47.72,674c.62,2.88,2.62,6.25,5.37,9.37a30.53,30.53,0,0,1-6.74-3.87" transform="translate(0 -249.47)"/><path class="cls-5" d="M54.59,703.31l3,.75a13.85,13.85,0,0,0,3.12,2.87c-.5-.12-1-.12-1.62-.25a17.6,17.6,0,0,1-4.5-3.37" transform="translate(0 -249.47)"/><path class="cls-5" d="M53.09,694.82A12.82,12.82,0,0,0,57,699.69a22.55,22.55,0,0,1-2.74-.63,22.7,22.7,0,0,1-6.87-6.49,36.83,36.83,0,0,0,5.74,2.25" transform="translate(0 -249.47)"/><path class="cls-5" d="M54.84,694.57c-1.12-.25-2.25-.63-3.5-1a35,35,0,0,1-8-8.75,73.92,73.92,0,0,0,7.74,4.12,18.73,18.73,0,0,0,3.75,5.63" transform="translate(0 -249.47)"/><path class="cls-5" d="M51.34,698.94c1.25.37,2.63.75,3.88,1a11.3,11.3,0,0,0,3.37,3.62c-.63-.12-1.25-.25-2-.37a15.48,15.48,0,0,1-5.25-4.25" transform="translate(0 -249.47)"/><path class="cls-5" d="M53.59,689.32c-1.5-.63-3-1.25-4.5-2a31.19,31.19,0,0,1-8.62-12.12c1.5,1.38,3,2.75,4.63,4,1.12.88,2.25,1.62,3.37,2.37a19.11,19.11,0,0,0,5.12,7.75" transform="translate(0 -249.47)"/><path class="cls-5" d="M104.68,679.45a31.29,31.29,0,0,0,4.25-7.12,26.24,26.24,0,0,0,2.13-7,52.08,52.08,0,0,1-7.75,8.62c-.62,2.88-2.62,6.25-5.37,9.37a27.84,27.84,0,0,0,6.74-3.87" transform="translate(0 -249.47)"/><path class="cls-5" d="M96.56,703.31l-3,.75a13.91,13.91,0,0,1-3.13,2.87c.5-.12,1-.12,1.63-.25a17.39,17.39,0,0,0,4.49-3.37" transform="translate(0 -249.47)"/><path class="cls-5" d="M98.06,694.82a12.72,12.72,0,0,1-3.87,4.87,22.7,22.7,0,0,0,2.75-.63,21.08,21.08,0,0,0,6.75-6.49,35.72,35.72,0,0,1-5.63,2.25" transform="translate(0 -249.47)"/><path class="cls-5" d="M96.31,694.57c1.13-.25,2.25-.63,3.5-1a35,35,0,0,0,8-8.75,74.08,74.08,0,0,1-7.75,4.12,21,21,0,0,1-3.75,5.63" transform="translate(0 -249.47)"/><path class="cls-5" d="M99.69,698.94a36.44,36.44,0,0,1-3.87,1,11.46,11.46,0,0,1-3.38,3.62c.63-.12,1.25-.25,2-.37a14.35,14.35,0,0,0,5.25-4.25" transform="translate(0 -249.47)"/><path class="cls-5" d="M97.56,689.32c1.5-.63,3-1.25,4.5-2a31.08,31.08,0,0,0,8.62-12.12c-1.5,1.38-3,2.75-4.62,4-1.13.88-2.25,1.62-3.37,2.37a19.13,19.13,0,0,1-5.13,7.75" transform="translate(0 -249.47)"/><path class="cls-2" d="M75.58,708.43l1.62-1.62.88.87h.12a16.31,16.31,0,0,0,7-2.87l.12-.13v-1.24h2.25v-2.25h1.37l.13-.13a16.27,16.27,0,0,0,2.87-7v-.13l-.87-.87,1.62-1.63-.25-.25-1.37-1.37,1-.88v-.12a16.45,16.45,0,0,0-2.88-7l-.12-.12H87.82v-2.25H85.57v-1.37l-.12-.13a16.31,16.31,0,0,0-7-2.87h-.12l-.88.87-1.37-1.37-.25-.25-.25.25L74.2,676l-.87-.87H73.2a16.27,16.27,0,0,0-7,2.87l-.13.13v1.37H63.84v2.25H62.46l-.12.12a15.81,15.81,0,0,0-2.88,7v.12l.88.88L59,691.19l-.25.25,1.63,1.63-.88.87v.13a16.41,16.41,0,0,0,2.88,7l.12.13h1.38v2.25h2.24v1.24l.13.13a15.69,15.69,0,0,0,7,2.87h.13l1-.87,1.25,1.62" transform="translate(0 -249.47)"/><path class="cls-4" d="M65.21,699.56a13.1,13.1,0,1,1,23.36-8.12,12.66,12.66,0,0,1-2.87,8.12l-1.13-.37,1.88-3.13-.38-.37a26.35,26.35,0,0,1-13.62,1,41.06,41.06,0,0,1-6.62-1.62l-.37.25a7.36,7.36,0,0,0,1.75,5,4.17,4.17,0,0,1-1.75-.62l-.25-.13" transform="translate(0 -249.47)"/><path class="cls-2" d="M73.33,695.07c-.13.37-.13.75-.25,1.12l.37.37c.13,0,7.75-2.74,12.5-1.12l.37-.37a52.14,52.14,0,0,0-4.12-6.25c-2.37-3-6-7-10.12-8.62l-.37.5a14,14,0,0,1,1.74,3.87,29.08,29.08,0,0,1,.63,4.25A9.48,9.48,0,0,0,73,687.2a8.35,8.35,0,0,0-5.12-3.13l-.25.5a6.42,6.42,0,0,1,1,2.75,11.76,11.76,0,0,1-1.5,7.5l.38.37c1-.37,4.37-.87,5.87-.12" transform="translate(0 -249.47)"/><path class="cls-5" d="M73.45,694.44c-1.62-.75-4.49-.25-5.74,0a12.7,12.7,0,0,0,1.37-5.75,6.85,6.85,0,0,0-.12-1.62,6.7,6.7,0,0,0-.75-2.37c3.62.87,5.49,4.87,5.74,5.37-.12,1.25-.25,2.75-.5,4.37" transform="translate(0 -249.47)"/><path class="cls-5" d="M74.58,689.32A18.18,18.18,0,0,0,74,684.2a11.11,11.11,0,0,0-1.25-3.13c3.63,1.75,6.75,5.25,8.87,8a52.55,52.55,0,0,1,3.75,5.5,17.56,17.56,0,0,0-7.62.12c-1.75.38-3.25.75-4,1a24.8,24.8,0,0,0,.88-6.37" transform="translate(0 -249.47)"/><path class="cls-5" d="M84.07,699.19a5.62,5.62,0,0,0-3.25.62,4.82,4.82,0,0,1-4.87,0,6.1,6.1,0,0,0-5.49,0,4.76,4.76,0,0,1-2.38.63,7.63,7.63,0,0,1-2-4.62,26.32,26.32,0,0,0,6.37,1.49,30,30,0,0,0,13.12-.75c-.25.5-.87,1.63-1.5,2.63" transform="translate(0 -249.47)"/><path class="cls-5" d="M77,704.56c-.5,0-1,.12-1.37.12a13.27,13.27,0,0,1-4.5-.74,5.13,5.13,0,0,1,4.5.12c.37.12.87.37,1.37.5" transform="translate(0 -249.47)"/><path class="cls-5" d="M84,701.56a13.75,13.75,0,0,1-4.12,2.38,5.27,5.27,0,0,1-3.88-.38,6.1,6.1,0,0,0-5.49,0,.13.13,0,0,0-.13.13l-1.5-.75a4.76,4.76,0,0,0,1.88-.63,4.87,4.87,0,0,1,4.87,0,5.4,5.4,0,0,0,5.49,0,3.93,3.93,0,0,1,2.88-.75" transform="translate(0 -249.47)"/><path class="cls-5" d="M84.45,701.06a5.47,5.47,0,0,0-3.75.63,4.87,4.87,0,0,1-4.87,0,6.06,6.06,0,0,0-5.5,0,4.82,4.82,0,0,1-2.37.62,20.93,20.93,0,0,1-1.75-1.5,5.62,5.62,0,0,0,4.5-.5,4.87,4.87,0,0,1,4.87,0,5.4,5.4,0,0,0,5.49,0,5.32,5.32,0,0,1,4.38-.25l-1,1" transform="translate(0 -249.47)"/><path class="cls-5" d="M74.83,677.83a13.73,13.73,0,0,0-8.5,3.49v-2.87a15,15,0,0,1,6.5-2.62c.12.12,1.37,1.25,2,2" transform="translate(0 -249.47)"/><path class="cls-5" d="M74.83,705.18l-2,2a17.33,17.33,0,0,1-6.5-2.62v-2.87a13.68,13.68,0,0,0,8.5,3.49" transform="translate(0 -249.47)"/><rect class="cls-5" x="64.08" y="430.61" width="1.62" height="1.62"/><rect class="cls-5" x="64.08" y="451.84" width="1.62" height="1.62"/><rect class="cls-5" x="59.7" y="690.73" width="1.62" height="1.62" transform="translate(-470.32 -5.26) rotate(-44.88)"/><path class="cls-5" d="M62.46,700.69a17.74,17.74,0,0,1-2.75-6.5l2-2a13.74,13.74,0,0,0,3.5,8.5H62.46" transform="translate(0 -249.47)"/><path class="cls-5" d="M61.84,690.82l-2-2a15.66,15.66,0,0,1,2.75-6.5h2.87a13.16,13.16,0,0,0-3.62,8.5" transform="translate(0 -249.47)"/><path class="cls-5" d="M75.58,677.7l1.12-1.12-1.12-1.13-1.13,1.13,1.13,1.12" transform="translate(0 -249.47)"/><path class="cls-5" d="M74.33,706.43l1.12-1.12,1.13,1.12-1.13,1.13-1.12-1.13" transform="translate(0 -249.47)"/><path class="cls-5" d="M76.2,677.83a13.73,13.73,0,0,1,8.5,3.49v-2.87a15,15,0,0,0-6.5-2.62l-2,2" transform="translate(0 -249.47)"/><path class="cls-5" d="M76.2,705.18l2,2a17.33,17.33,0,0,0,6.5-2.62v-2.87a13.68,13.68,0,0,1-8.5,3.49" transform="translate(0 -249.47)"/><rect class="cls-5" x="85.32" y="430.61" width="1.62" height="1.62"/><rect class="cls-5" x="85.32" y="451.84" width="1.62" height="1.62"/><rect class="cls-5" x="89.71" y="690.67" width="1.62" height="1.62" transform="translate(-464.17 19.34) rotate(-45.23)"/><path class="cls-5" d="M88.57,700.69a17.74,17.74,0,0,0,2.75-6.5l-2-2a13.74,13.74,0,0,1-3.5,8.5h2.75" transform="translate(0 -249.47)"/><path class="cls-5" d="M89.19,690.82l2-2a15.66,15.66,0,0,0-2.75-6.5H85.57a13.11,13.11,0,0,1,3.62,8.5" transform="translate(0 -249.47)"/><path class="cls-11" d="M99.06,730a3.63,3.63,0,0,1-.12,1.13,3.42,3.42,0,0,1-1.63,2.12l-.5-.25v-.25a4.15,4.15,0,0,0-.5-2.12c-.12-.13-.12-.25-.25-.38a5.49,5.49,0,0,1-.62,3.63,3,3,0,0,1-2.25,1.37l-.37-.37a4.12,4.12,0,0,0,.37-1.63v-.62a1.27,1.27,0,0,0-.5-.88,5.82,5.82,0,0,1-.75,2.63,3.51,3.51,0,0,1-3,1.62l-.25-.5a4.68,4.68,0,0,0,.63-2.25,1.85,1.85,0,0,0-.25-.75,12.83,12.83,0,0,0-1.5.38,72.38,72.38,0,0,1-24,0,12.14,12.14,0,0,1-1.5-.38.92.92,0,0,0-.25.75,4.73,4.73,0,0,0,.62,2.25l-.25.5a3.4,3.4,0,0,1-3-1.62,4.64,4.64,0,0,1-.75-2.63,2.05,2.05,0,0,0-.5.88v.62a3.39,3.39,0,0,0,.38,1.63l-.38.37a3,3,0,0,1-2.24-1.37,4.86,4.86,0,0,1-.63-3.63c-.12.13-.25.25-.25.38a3.71,3.71,0,0,0-.5,2.12V733l-.5.25a3.44,3.44,0,0,1-1.62-2.12,3.36,3.36,0,0,1-.13-1.13,71.48,71.48,0,0,1-23.23-12.86c-.63,1.37-4.87,12.36-5,12.49.13,1.75,5.62,6.87,15.87,11.87A85.39,85.39,0,0,0,75.58,750a85.43,85.43,0,0,0,35.85-8.49c10.24-5,15.74-10.12,15.87-11.87,0-.13-4.38-11-5-12.49A72.89,72.89,0,0,1,99.06,730" transform="translate(0 -249.47)"/><path class="cls-9" d="M30,642.1a29.37,29.37,0,0,0,2.25,9.49,28.12,28.12,0,0,0,.37,8.87,33.2,33.2,0,0,0,1.5,6,50,50,0,0,1-4.37-8.5A40.2,40.2,0,0,1,27,645.6a26.93,26.93,0,0,1,1.25-8c1-3.5,2-5.25,2.63-5.5,0,0,.12-.12.37.13A33.41,33.41,0,0,0,30,642.1" transform="translate(0 -249.47)"/><path class="cls-9" d="M121.17,642.1a29.31,29.31,0,0,1-2.24,9.49,27.88,27.88,0,0,1-.38,8.87,31.61,31.61,0,0,1-1.5,6,49.24,49.24,0,0,0,4.37-8.5,39.91,39.91,0,0,0,2.75-12.36,26.29,26.29,0,0,0-1.25-8c-1-3.5-2-5.25-2.62-5.5,0,0-.13-.12-.37.13a33.43,33.43,0,0,1,1.24,9.87" transform="translate(0 -249.47)"/><path class="cls-6" d="M75.2,615.37v13.74c-.75-.25-9.74-4.13-10.12-4.25V611.12l10.12,4.25" transform="translate(0 -249.47)"/><path class="cls-6" d="M75.83,629.11V615.37L86,611.12v13.74c-.38.12-9.37,3.87-10.12,4.25" transform="translate(0 -249.47)"/><line class="cls-7" x1="31.36" y1="481.32" x2="30.98" y2="481.95"/><path class="cls-5" d="M32,728.42a1.64,1.64,0,0,0,.12-.75c0-.25-.12-.37-.24-.62s-.25-.38-.5-.5l-.75-.38h-.75a.7.7,0,0,0-.63.38c-.25.12-.37.37-.62.62l-.38.75a.83.83,0,0,0,0,.75,1.85,1.85,0,0,0,.25.75,1.51,1.51,0,0,0,.63.62l1.25.88,1.12-1.75a2.52,2.52,0,0,0,.5-.75m-.75-.13c0,.13-.12.25-.25.38l-.87,1.25-.5-.38c-.38-.25-.63-.5-.63-.87a2.84,2.84,0,0,1,.38-1.12l.37-.38c.13-.12.25-.25.38-.25s.25-.12.37,0,.25.13.5.13.25.25.25.37a.46.46,0,0,1,.13.38.7.7,0,0,1-.13.49m.87-1.87a.46.46,0,0,0,.38.13c.12,0,.25-.13.37-.25a.46.46,0,0,0,.13-.38c0-.12-.13-.25-.25-.37a.46.46,0,0,0-.38-.13c-.12,0-.25.13-.37.25a.48.48,0,0,0-.12.38c.12.25.12.37.24.37m-1-.62a.46.46,0,0,0,.37.12c.13,0,.25-.12.38-.25a.46.46,0,0,0,.12-.37c0-.13-.12-.25-.25-.38a.46.46,0,0,0-.37-.12c-.13,0-.25.12-.38.25a.46.46,0,0,0-.12.37c0,.13.12.25.25.38m11.61,7a.23.23,0,0,0,.38,0,.27.27,0,0,0,.25-.25.24.24,0,0,0,0-.37.27.27,0,0,0-.25-.25.23.23,0,0,0-.38,0,.27.27,0,0,0-.25.25.24.24,0,0,0,0,.37.27.27,0,0,0,.25.25m-1.12-.62a.24.24,0,0,0,.37,0,.27.27,0,0,0,.25-.25.23.23,0,0,0,0-.38c0-.12-.12-.25-.25-.37s-.25-.13-.37,0a.26.26,0,0,0-.25.25.22.22,0,0,0,0,.37c0,.25.12.38.25.38m7.87,8.62.75.25,2.12-5.87a1.71,1.71,0,0,0-.75-.25Zm6-3h.37c.13-.13.25-.13.25-.38V737c-.12-.13-.12-.25-.37-.25h-.38c-.12.12-.25.12-.25.37v.38c.13.12.25.25.38.25M73.7,739l-.12,6.24h.75l.12-6.24H73.7m6.75,1.75a.46.46,0,0,0,.37.12c.13,0,.25-.12.38-.25a.46.46,0,0,0,.12-.37.43.43,0,0,0-.5-.5c-.12,0-.25.12-.37.12a.46.46,0,0,0-.13.38c-.12.25,0,.37.13.5m-1.37.12a.44.44,0,0,0,.37.13c.13,0,.25-.13.38-.13a.46.46,0,0,0,.12-.37c0-.13-.12-.25-.12-.38s-.25-.12-.38-.12-.25.12-.37.12a.46.46,0,0,0-.13.38.44.44,0,0,0,.13.37m2.74.25.25,3.25-1.37.12H79.45a2.14,2.14,0,0,1-.75-.37,1.28,1.28,0,0,1-.5-.62,1.64,1.64,0,0,1-.12-.75v-.63a1.15,1.15,0,0,1,.12-.62l-.87.25a1.31,1.31,0,0,1-.13.62V743a2.36,2.36,0,0,0,.25,1,3.49,3.49,0,0,0,.63.75,2.42,2.42,0,0,0,1,.5,4.89,4.89,0,0,0,1.49.13l2.38-.13-.25-3.87Zm1.75-2.5.88,6.25.75-.13-.75-6.24a1.94,1.94,0,0,0-.88.12m3.75,1.75-.75.13.63,4a1.23,1.23,0,0,1-.13,1c-.12.25-.37.38-.87.5h-.38v.75h.5a6.13,6.13,0,0,0,.88-.25c.25-.12.37-.37.5-.5s.12-.5.25-.75v-.87Zm7.5-.62a1,1,0,0,0-.5-.5,1,1,0,0,0-.63-.25h-.75a1.07,1.07,0,0,0-.75.37c-.25.13-.37.38-.5.5a1.85,1.85,0,0,0-.25.75,3,3,0,0,0,.13,1c0,.25.12.38.12.63a.46.46,0,0,1-.12.37c0,.13-.13.13-.25.25a.41.41,0,0,0-.25.13l-1,.12-1.13-5.5c-.25,0-.5.13-.75.13l1.25,6.12,1.75-.25a2,2,0,0,0,.75-.37,1.29,1.29,0,0,0,.25-.63.9.9,0,0,0,.75.38,1.77,1.77,0,0,0,1.13,0l1.5-.38-.5-2a1.86,1.86,0,0,0-.25-.87m-.75,2.5c-.5.12-.88.12-1.13-.13a1.51,1.51,0,0,1-.62-1c0-.12-.13-.37-.13-.5a.74.74,0,0,1,.13-.5c0-.12.12-.25.25-.37s.25-.13.37-.25h.38c.12,0,.25.12.37.12s.25.25.25.38.13.25.13.5l.37,1.5Zm4.12-7-.75.25,1.37,4.25c0,.12.13.37.13.5a.44.44,0,0,1-.13.37l-.37.38a1,1,0,0,1-.63.25c-.25,0-.37.12-.62.12h-.63l.13.88a1.31,1.31,0,0,0,.62-.13,6,6,0,0,0,.63-.12,2.61,2.61,0,0,0,1-.5,1.31,1.31,0,0,0,.5-.63,2.4,2.4,0,0,0,0-1.5Zm-.75,5.25-1.38-4.62a1.83,1.83,0,0,0-.74.24l1.49,4.75Zm1,3.12h-.38c-.12,0-.12-.12-.12-.25v-.25c0-.12.12-.12.25-.12h.25v-.38h-.38c-.25.13-.37.13-.5.38a.76.76,0,0,0-.12.5c0,.12.12.12.12.25a.46.46,0,0,0,.25.12h-.25c-.12,0-.25,0-.25.12l.13.5,1.62-.5-.12-.49Zm1-8.74,2.12,5.87.75-.25-2.12-5.87a1.71,1.71,0,0,0-.75.25m-50-.88-2,5.25-1.75-.63.63-1.25a3.29,3.29,0,0,0,.25-.87v-.75c-.13-.25-.13-.37-.38-.5a2.59,2.59,0,0,0-.62-.37c-.25-.13-.5-.13-.75-.25a1.64,1.64,0,0,0-.75.12,1.31,1.31,0,0,0-.63.5,2.08,2.08,0,0,0-.5.87c-.12.25-.25.38-.25.5s-.25.25-.37.25-.25.13-.38,0a.46.46,0,0,1-.37-.12,3.74,3.74,0,0,1-1-.5l1.5-3-.75-.37-1.5,3c-.62-.25-1.12-.63-1.75-.88l.63-1a2,2,0,0,0,.37-1,2.18,2.18,0,0,0-.12-.87,1.31,1.31,0,0,0-.5-.63,2.72,2.72,0,0,0-.75-.5c-.13-.12-.25-.12-.38-.25a.46.46,0,0,1-.25-.12l-.37.5c.12,0,.25.12.37.12s.25.13.38.25a2,2,0,0,1,1,1,1.25,1.25,0,0,1-.25,1.25l-.5.88c-1.13-.63-2.13-1.25-3.25-1.88l.12-.25a4.24,4.24,0,0,0,.5-1.12,1.69,1.69,0,0,0,0-1.13,4.09,4.09,0,0,0-.37-1.12,6.67,6.67,0,0,0-.75-1l-.5.62a2.93,2.93,0,0,1,.87,1.75,2.33,2.33,0,0,1-.5,1.75h0l-2.24-1.5-.38.63a63.7,63.7,0,0,0,10.24,5.87,2.58,2.58,0,0,0,.88.12A.67.67,0,0,0,43,737a1.09,1.09,0,0,0,.38.75,1.51,1.51,0,0,0,1,.62L48.22,740l2.25-5.87ZM45,738.29l-.62-.25c-.38-.13-.75-.38-.75-.75s0-.63.12-1.13c.13-.12.13-.37.25-.49l.38-.38a.46.46,0,0,1,.37-.12,1,1,0,0,1,.5.12c.13.13.25.13.38.25a.48.48,0,0,1,.12.38v.37c0,.12-.12.25-.12.5Zm11.74-.13h.38c.12-.12.25-.25.25-.37v-.38c-.13-.12-.13-.25-.25-.25h-.38c-.12.13-.25.13-.25.38v.37c.13.13.13.25.25.25m2,6a.46.46,0,0,0-.37.12c-.13.13-.25.13-.25.38V745c.12.13.12.25.37.25a.48.48,0,0,0,.38-.12c.12-.13.25-.25.25-.38v-.37a.92.92,0,0,0-.38-.25m3-4.12-.62,3.25c-.63-.13-1.38-.25-2-.38l.75-3.12-.75-.13-.75,3.13a10.9,10.9,0,0,1-1.88-.5l.88-3.13c-.25-.12-.38-.25-.63-.25s-.37-.12-.62-.25a2.18,2.18,0,0,0-.87-.12,1.71,1.71,0,0,0-.75.25,2.12,2.12,0,0,0-.63.5l-.37.75a1.53,1.53,0,0,0-.13.75,1.85,1.85,0,0,0,.25.75,1,1,0,0,0,.5.5l.75.37s1.25.38,2.37.63c1.5.37,3,.62,4.5,1l.75-3.87Zm-6.12,2-.62-.13a1.23,1.23,0,0,1-.75-.62,1.64,1.64,0,0,1,0-1.13,1,1,0,0,1,.25-.5l.37-.37c.13-.13.25-.13.5-.13h.75c.12,0,.12,0,.12.13s.13,0,.13.12Zm5,2.49a.46.46,0,0,0-.38.13A1,1,0,0,0,60,745a.46.46,0,0,0,.13.38c.12.12.12.25.37.25a.46.46,0,0,0,.38-.13c.12-.12.12-.25.25-.37v-.38c-.25-.12-.38-.12-.5-.25m-3.13-.62a.46.46,0,0,0-.37.12c-.13.13-.25.25-.25.38v.37c.12.13.12.25.37.25a.48.48,0,0,0,.38-.12c.12-.13.25-.25.25-.38v-.37c-.13-.13-.25-.25-.38-.25m47-9.24c.13-.13.25-.13.25-.25V734a.27.27,0,0,0-.25-.25h-.37a.28.28,0,0,0-.25.25v.38c.13.12.13.25.25.25s.12,0,.37,0m.75-.5h.38a.28.28,0,0,0,.25-.25v-.38a.28.28,0,0,0-.25-.25h-.38a.28.28,0,0,0-.25.25v.38c0,.12.13.12.25.25m16.62-3.63a.44.44,0,0,0-.5.5.48.48,0,0,0,.12.38c.13.12.25.12.38.25a.45.45,0,0,0,.5-.5.46.46,0,0,0-.13-.38c-.12-.12-.25-.25-.37-.25m-.5-3.12a1.43,1.43,0,0,0-.88-.62,1.76,1.76,0,0,0-.87-.13,3.29,3.29,0,0,0-.87.25,2.72,2.72,0,0,0-.75.5c-.13.13-.25.25-.38.25l-.25.25.38.62.25-.25c.12-.12.25-.12.37-.24a2.33,2.33,0,0,1,1.25-.63,1.68,1.68,0,0,1,1.12.63l.63.74-3.12,2.38-3.25-4.5a2.3,2.3,0,0,0-.63.5l3.63,5.12,4.37-3.37Zm-6,3.25c-.25-.13-.37-.25-.62-.38s-.38-.12-.63,0-.37.13-.62.25a3.21,3.21,0,0,0-.63.5c-.12.25-.25.38-.25.63v.75c.13.25.25.62.38.87s.25.38.25.5v.38c0,.12,0,.25-.13.25s-.25.25-.37.25a7.24,7.24,0,0,1-.75.25h-.62a4.14,4.14,0,0,0,.25-1c0-.25,0-.63-.13-.75s-.25-.38-.37-.5a1,1,0,0,0-.5-.25c-.25,0-.38-.13-.63,0a1.71,1.71,0,0,0-.75.25,2.2,2.2,0,0,0-.87.62,2.84,2.84,0,0,0-.63,1l.25.75h.63a.74.74,0,0,1,.5.13c.12,0,.37.12.5.12s.37.13.62.25a6.54,6.54,0,0,1-1.37,1.25c-.25.12-.63.25-1.13.5l-1.37-3a5.59,5.59,0,0,0-.63.13c-.25,0-.37.12-.62.25a2.52,2.52,0,0,0-.75.5,2.1,2.1,0,0,0-.5.62,1.64,1.64,0,0,0-.12.75,2.37,2.37,0,0,0,.24.87,1.31,1.31,0,0,0,.5.63c.13.12.38.37.63.37a1.53,1.53,0,0,0,.75.13,3.29,3.29,0,0,0,.87-.25,17.52,17.52,0,0,0,2.5-1.13,2.46,2.46,0,0,0,1-.75,7.33,7.33,0,0,0,.88-1h1a1.65,1.65,0,0,0,1-.38,2,2,0,0,0,.75-.75.77.77,0,0,0,0-.75,1.8,1.8,0,0,0,.88.13,2.89,2.89,0,0,0,1.12-.38l1.38-.87-1.13-1.75c-.37.37-.5.12-.75,0M106.56,738a1.42,1.42,0,0,1-1,0,1.84,1.84,0,0,1-.75-.88.72.72,0,0,1-.13-.5v-.5c0-.12.13-.25.25-.37s.25-.25.38-.25h.12s.13,0,.13-.12a.12.12,0,0,0,.12-.13h.13l1.12,2.5Zm4.37-3.62c0,.25-.12.5-.12.75a2.42,2.42,0,0,0-1.13-.38,1.42,1.42,0,0,0-1,0,2.57,2.57,0,0,1,.38-.62,1.19,1.19,0,0,1,.62-.5.83.83,0,0,1,.75-.13c.25,0,.38.13.5.38v.5m4.5-1.13c-.38.25-.75.38-1,.25a2.26,2.26,0,0,1-.88-.75c-.12-.12-.12-.37-.25-.5s-.12-.25-.12-.5a.46.46,0,0,1,.12-.37c.13-.13.13-.25.38-.38a.46.46,0,0,1,.37-.12h.38c.12,0,.25.12.37.25s.25.25.25.37l.75,1.25ZM71.21,744.66a3.78,3.78,0,0,1-1.75-.25A1.66,1.66,0,0,1,69,744a2.11,2.11,0,0,0,.75-.74,1.85,1.85,0,0,0,.25-.75v-.63a1,1,0,0,0-.25-.5,1.8,1.8,0,0,0-.5-.37c-.25-.13-.5-.13-.75-.25a3.63,3.63,0,0,0-1.13.12l-1.12.38L66,742a1.8,1.8,0,0,1,.5.37l.37.38.38.37c.12.13.25.38.37.5-.25.13-.5.13-.75.25a22.87,22.87,0,0,1-2.37-.12l.5-3.25-.75-.13-.62,4a1.86,1.86,0,0,1-.38.87,1,1,0,0,1-.87.13.46.46,0,0,1-.38-.13l-.25.75c.13,0,.25.13.38.13h1c.25-.13.5-.13.62-.38a1,1,0,0,0,.38-.62,8,8,0,0,0,.24-.88h0a6.69,6.69,0,0,0,2.63.13,2.83,2.83,0,0,0,1.25-.38,2.52,2.52,0,0,0,.75.5,3.19,3.19,0,0,0,1.75.25h1.12l.37-6.24h-.74Zm-2.88-1.12a6.67,6.67,0,0,0-.75-1,2.33,2.33,0,0,0-.87-.63,1.85,1.85,0,0,1,.75-.25,1.64,1.64,0,0,1,.75-.12,1.71,1.71,0,0,1,.75.25.75.75,0,0,1,0,1.12,1.05,1.05,0,0,1-.63.63" transform="translate(0 -249.47)"/><path class="cls-2" d="M72.45,659.71a8.46,8.46,0,0,0-2.74.5l.12.63a1.86,1.86,0,0,0,.5-.13,1.22,1.22,0,0,0,1.25,1c.5,0,.87-.12,2-1.37H75.2v-.63a17.52,17.52,0,0,0-2.75,0" transform="translate(0 -249.47)"/><path class="cls-4" d="M345.91,417.36h60.71L377,323.67h-.75l-30.35,93.69m93.69,99.57-16.49-48H329.79l-16.86,48H241.35l79.07-211.62H232.85V406.5c0,77.57-35.6,116-116.42,116S0,484,0,406.5v-157H69.71v161c0,34.48,12.74,52.1,46.84,52.1S163.4,445,163.4,410.49v-161h249L486.45,461H519.8V249.47H732.92v55.84H589.38v46.84h131v54h-131v51H736.54v60H439.6ZM999.88,406.5c0,77.57-35.61,116-116.56,116S766.9,484,766.9,406.5v-157h69.7v161c0,34.48,12.74,52.1,46.85,52.1s46.84-17.62,46.84-52.1v-161H1000v157Z" transform="translate(0 -249.47)"/></svg>